<?xml version="1.0" standalone="no"?>
<!DOCTYPE svg PUBLIC "-//W3C//DTD SVG 20010904//EN"
 "http://www.w3.org/TR/2001/REC-SVG-20010904/DTD/svg10.dtd">
<svg version="1.0" xmlns="http://www.w3.org/2000/svg"
 width="700.000000pt" height="700.000000pt" viewBox="0 0 700.000000 700.000000"
 preserveAspectRatio="xMidYMid meet">
<metadata>
Created by potrace 1.11, written by Peter Selinger 2001-2013
</metadata>
<g transform="translate(0.000000,700.000000) scale(0.100000,-0.100000)"
fill="#000000" stroke="none">
<path d="M2511 6984 c-157 -42 -293 -192 -317 -349 -3 -16 -5 -236 -5 -487
l-1 -458 -66 0 c-37 -1 -442 -1 -900 -1 -773 -1 -838 -2 -897 -19 -155 -44
-268 -158 -309 -311 -13 -46 -15 -398 -15 -2514 -1 -2321 0 -2463 17 -2520 25
-85 54 -137 112 -195 58 -58 110 -87 195 -112 57 -17 227 -18 3175 -17 3376 0
3157 -3 3269 54 64 32 144 112 176 176 57 111 54 -50 54 2609 0 1646 -3 2470
-10 2500 -27 119 -112 235 -210 289 -110 60 -93 59 -1039 60 -476 0 -879 0
-896 1 l-32 0 -1 458 c-1 486 -1 493 -26 562 -45 126 -150 226 -284 270 -53
18 -106 19 -996 19 -792 0 -949 -3 -994 -15z m1426 -1077 l1 -217 -76 -1 c-97
-1 -761 -1 -783 0 -15 1 -17 24 -16 219 l0 217 436 0 436 0 2 -218z m2153
-1097 l35 0 0 -874 0 -873 -875 1 -875 1 0 218 0 217 -875 0 -875 0 0 -219 0
-218 -875 1 -875 1 0 870 0 870 40 5 c29 4 4897 4 5175 0z m-3475 -2192 c7 -4
10 -84 10 -217 l0 -211 145 -1 c174 0 1593 0 1600 1 3 0 5 97 5 215 0 137 3
216 10 218 9 3 1723 1 1735 -2 3 0 5 -394 5 -873 l0 -873 -2618 0 c-1737 0
-2621 3 -2626 10 -6 8 -8 1740 -2 1740 216 4 1729 -2 1736 -7z"/>
</g>
</svg>
